<svg width="210" height="20" viewBox="0 0 210 20" fill="none" xmlns="http://www.w3.org/2000/svg">
<path fill-rule="evenodd" clip-rule="evenodd" d="M-0.000244141 9.99992C-0.000244141 4.47712 4.47687 0 9.99967 0H48.1284C52.6086 0 56.4006 2.94618 57.6727 7.00678C57.8792 7.66606 58.4612 8.16325 59.1521 8.16325C59.843 8.16325 60.4249 7.66608 60.6315 7.0068C61.9036 2.94627 65.6956 0.00016285 70.1757 0.00016285H200C205.523 0.00016285 210 4.47728 210 10.0001C210 15.5229 205.523 20 200 20H70.1757C65.6956 20 61.9035 17.0538 60.6314 12.9932C60.4249 12.3339 59.8429 11.8367 59.152 11.8367C58.4612 11.8367 57.8792 12.3339 57.6727 12.9931C56.4005 17.0537 52.6085 19.9998 48.1284 19.9998H9.99966C4.47686 19.9998 -0.000244141 15.5227 -0.000244141 9.99992ZM119.502 14.5346C118.8 14.5346 118.25 14.4361 117.855 14.2366C117.458 14.0383 117.181 13.7415 117.023 13.3437C116.865 12.9472 116.786 12.457 116.786 11.8708V8.55421C116.786 7.60222 116.999 6.90024 117.425 6.44949C117.85 5.99874 118.543 5.77214 119.504 5.77214H123.971C124.654 5.77214 125.175 5.80908 125.537 5.88421C125.898 5.9581 126.08 6.03569 126.08 6.11451L125.783 7.34852C125.615 7.31897 125.117 7.28695 124.291 7.25123C123.465 7.21675 122.265 7.1995 120.692 7.1995H119.935C119.143 7.1995 118.748 7.55173 118.748 8.25618V12.0494C118.748 12.3868 118.834 12.6467 119.007 12.8302C119.18 13.0137 119.49 13.1048 119.935 13.1048H120.544C122.186 13.1048 123.461 13.0876 124.366 13.0531C125.272 13.0186 125.834 12.9816 126.051 12.941L126.66 13.9225C126.66 13.9718 126.579 14.0469 126.416 14.1455C126.253 14.2452 125.952 14.3339 125.518 14.4127C125.082 14.4915 124.454 14.5322 123.633 14.5322H119.506L119.502 14.5346ZM86.4001 14.5344V6.97885L86.2519 5.77439H92.8279C93.4616 5.77439 93.9581 5.85937 94.32 6.02686C94.6807 6.19558 94.9487 6.41603 95.1216 6.6882C95.2945 6.96161 95.4057 7.25102 95.4551 7.55891C95.5045 7.8668 95.5292 8.15868 95.5292 8.43701V9.3151C95.5292 9.54294 95.4946 9.7991 95.4255 10.0811C95.3563 10.3632 95.2278 10.6366 95.0401 10.8989C94.8523 11.1612 94.5794 11.3804 94.2237 11.5528C93.8679 11.7265 93.4023 11.8127 92.8279 11.8127H91.3136C90.6899 11.8127 90.1081 11.7979 89.5696 11.7684C89.0298 11.7388 88.6271 11.7142 88.3603 11.6945V14.5357H86.4014L86.4001 14.5344ZM88.3591 10.3841H92.3968C92.8427 10.3841 93.1491 10.2745 93.317 10.0565C93.485 9.83851 93.569 9.57619 93.569 9.2683V8.33109C93.569 8.01335 93.485 7.74611 93.317 7.52812C93.1491 7.31014 92.8464 7.20053 92.4117 7.20053H88.3591V10.3841ZM72.2378 14.5346C71.5646 14.5346 71.0706 14.505 70.7531 14.4459C70.4369 14.3868 70.2776 14.3166 70.2776 14.2378L70.8717 12.9434C71.099 12.9828 71.6659 13.0198 72.5713 13.0555C73.4767 13.09 74.7217 13.1072 76.3052 13.1072H76.5868C77.0117 13.1072 77.3143 13.0309 77.4922 12.8769C77.67 12.723 77.759 12.4631 77.759 12.0961V11.7981C77.759 11.4508 77.6873 11.2032 77.544 11.0542C77.4008 10.9052 77.0809 10.8313 76.5868 10.8313H73.1432C72.1439 10.8313 71.4164 10.6454 70.9606 10.2734C70.5049 9.9015 70.2776 9.29434 70.2776 8.45073V8.21304C70.2776 7.77707 70.3591 7.37559 70.5221 7.00858C70.6852 6.64158 70.9643 6.34724 71.3608 6.1231C71.7561 5.90019 72.3008 5.78812 72.9937 5.78812H77.0314C77.7046 5.78812 78.2481 5.8226 78.6643 5.8928C79.0806 5.96177 79.2881 6.03689 79.2881 6.11571L78.9917 7.36573C78.7347 7.33618 78.1505 7.30416 77.2402 7.26844C76.3299 7.23396 75.1071 7.21672 73.573 7.21672L73.41 7.20194C72.9542 7.20194 72.6479 7.2943 72.4898 7.47657C72.3317 7.66007 72.2464 7.89038 72.2378 8.16871V8.42117C72.2378 8.74877 72.3292 8.99384 72.512 9.15764C72.6948 9.32144 72.9999 9.40272 73.4248 9.40272H76.7202C77.3538 9.40272 77.8936 9.46676 78.3383 9.59607C78.7841 9.72539 79.125 9.96061 79.3622 10.303C79.5993 10.6454 79.7179 11.1491 79.7179 11.8129V12.0506C79.7179 12.7944 79.5277 13.3942 79.146 13.8499C78.7644 14.3055 78.1048 14.5346 77.1648 14.5346H72.2378ZM104.331 5.78816L99.982 14.5346H102.148L103.113 12.6454H108.428L109.304 14.5346H111.59L107.256 5.78816H104.331ZM107.88 11.1885H103.65L105.698 7.12809H105.847L107.88 11.1885ZM132.595 5.78816V14.5346H140.7C141.354 14.5346 141.815 14.5174 142.081 14.4829C142.348 14.4472 142.482 14.4103 142.482 14.3708L141.887 13.106H134.554V10.7415H140.106V9.26853H134.554V7.21553H141.828V5.78816H132.595ZM151.403 14.5344L151.388 7.20179H147.528V5.77442H157.236V7.20179H153.362V14.5344H151.403ZM163.174 5.78816V14.5346H165.133V5.78816H163.174ZM172.11 14.5347V6.97916L171.962 5.78948H174.219L177.573 11.7391L181.047 5.78948H183.05V14.536H181.091V8.98782H180.928L180.349 10.2822L178.479 13.6443H176.683L174.813 10.2822L174.219 8.98782H174.07V14.536H172.112L172.11 14.5347ZM189.879 5.78816V14.5346H197.985C198.638 14.5346 199.099 14.5174 199.366 14.4829C199.632 14.4472 199.766 14.4103 199.766 14.3708L199.172 13.106H191.838V10.7415H197.391V9.26853H191.838V7.21553H199.112V5.78816H189.879ZM13.0913 7.6498V9.76483V9.76596L10.263 10.9046L13.0913 12.049V14.1663L7.57364 11.9934H7.56226V9.82386H7.57364L13.0913 7.6498ZM45.2366 14.0539V11.94L48.0626 10.8025L45.2366 9.66493V7.5499L50.7463 9.72169H50.76V11.8935H50.7463L45.2366 14.0539ZM42.8706 4.56072L39.6301 15.5763H41.5544L44.7948 4.56072H42.8706ZM22.001 9.5889C22.0351 8.72722 21.7471 7.88711 21.1994 7.25022H21.2005C20.9295 6.94937 20.6005 6.71323 20.2361 6.5577C19.8718 6.40217 19.4812 6.33178 19.0884 6.34881C18.6671 6.32951 18.247 6.40217 17.853 6.56111C17.4591 6.72005 17.0993 6.96299 16.7975 7.27406V6.57814H14.8733V14.281H16.7975V10.8695C16.7975 9.09959 17.3999 8.21521 18.6045 8.21521C18.806 8.20613 19.0076 8.24586 19.1932 8.33101C19.3776 8.41615 19.5427 8.54557 19.6748 8.70792C19.956 9.07915 20.0995 9.54576 20.0767 10.0203V14.281H22.001V9.5889ZM24.4504 3.37449V14.3901H26.3746V3.37449H24.4504ZM35.6414 13.9859H37.2457L39.9453 6.26945H37.889L36.3735 10.8991L34.8125 6.26945H33.3118L31.7508 10.8844L30.2353 6.26945H28.179L30.8763 13.9859H32.4795L34.0678 9.44823L35.6414 13.9859Z" fill="url(#paint0_linear_206_329)"/>
<defs>
<linearGradient id="paint0_linear_206_329" x1="3.47929" y1="-6.6526" x2="236.326" y2="-6.6526" gradientUnits="userSpaceOnUse">
<stop offset="0.251308" stop-color="#996DFF"/>
<stop offset="0.623787" stop-color="#FF876E"/>
<stop offset="1" stop-color="#FFD072"/>
</linearGradient>
</defs>
</svg>
